<svg width="69" height="69" viewBox="0 0 69 69" fill="none" xmlns="http://www.w3.org/2000/svg">
<rect width="69" height="69" rx="29" fill="#3561FF"/>
<g clip-path="url(#clip0_219_2)">
<path d="M49.692 20.094C46.158 18.3137 42.838 17.9502 40.8673 17.8811C40.8536 17.6987 40.696 15.9943 39.1557 15.0216C37.5363 14.0011 35.8396 14.7043 35.6986 14.7661C35.2804 13.1737 34.1222 12.2059 33.1493 12.3151C32.3152 12.4084 31.7294 13.2853 31.5959 13.4853C31.1166 14.2004 31.0733 14.9274 31.0742 15.2387C30.7289 14.962 30.1374 14.5579 29.3116 14.3237C28.7555 14.1658 27.6785 13.8602 26.8653 14.3202C25.9057 14.8667 25.4811 16.3932 25.8964 18.0418C25.0488 17.3739 24.0562 17.5427 23.7537 18.0266C23.5467 18.3587 23.6414 18.8775 23.924 19.318C22.0149 19.5968 19.3219 20.2535 16.5925 21.9529C9.54149 26.3423 4.69686 36.1799 7.89253 40.5002C9.38381 42.517 12.1533 43.31 15.4979 42.9852C15.8608 44.6792 16.7144 47.4428 18.943 49.9151C23.2223 54.6582 29.4245 54.8322 32.8646 54.9302C38.3324 55.0855 45.8793 53.5918 49.3598 49.1646C52.1701 45.5912 52.3675 41.8804 52.3675 41.8804C52.39 41.4387 52.3837 41.0707 52.3717 40.8152C52.9134 41.0078 55.5428 41.8855 57.9003 40.514C59.9349 39.3307 60.5567 37.173 60.6957 36.6995C62.2861 31.1941 56.4321 23.4876 49.692 20.094Z" fill="white"/>
<path d="M29.7101 35.4929C29.4197 36.5603 28.3303 37.2339 27.2769 36.9985C26.2234 36.763 25.6024 35.7056 25.8928 34.6403C26.1832 33.575 27.2726 32.8993 28.3261 33.1347C29.3796 33.3702 30.0005 34.4276 29.7101 35.4929Z" fill="#19100B"/>
<path d="M27.5897 34.6703C27.7819 34.6801 27.9457 34.5323 27.9555 34.3401C27.9653 34.1479 27.8174 33.9842 27.6252 33.9744C27.433 33.9646 27.2693 34.1124 27.2595 34.3046C27.2497 34.4968 27.3976 34.6605 27.5897 34.6703Z" fill="white"/>
<path d="M28.1802 35.0138C28.2953 35.0197 28.3933 34.9311 28.3992 34.816C28.405 34.701 28.3165 34.6029 28.2014 34.597C28.0863 34.5912 27.9883 34.6797 27.9824 34.7948C27.9766 34.9099 28.0651 35.0079 28.1802 35.0138Z" fill="#828282"/>
<path d="M37.4829 35.1452C37.6634 36.2366 38.6786 37.0174 39.7506 36.8903C40.8225 36.7631 41.5477 35.7743 41.3671 34.685C41.1866 33.5957 40.1714 32.8128 39.0995 32.9399C38.0275 33.067 37.3023 34.0559 37.4829 35.1452Z" fill="#19100B"/>
<path d="M38.7934 34.5998C38.9856 34.6096 39.1493 34.4617 39.1591 34.2696C39.1689 34.0774 39.021 33.9136 38.8288 33.9038C38.6366 33.894 38.4729 34.0419 38.4631 34.2341C38.4533 34.4263 38.6012 34.59 38.7934 34.5998Z" fill="white"/>
<path d="M39.3818 34.9411C39.4969 34.9469 39.595 34.8584 39.6008 34.7433C39.6067 34.6282 39.5182 34.5302 39.4031 34.5243C39.288 34.5185 39.1899 34.607 39.1841 34.7221C39.1782 34.8372 39.2668 34.9352 39.3818 34.9411Z" fill="#828282"/>
<path fill-rule="evenodd" clip-rule="evenodd" d="M27.3561 29.5262C27.3752 29.4125 27.4829 29.336 27.5965 29.3552C27.931 29.4116 28.3984 29.5297 28.9047 29.7922C29.5389 30.1205 29.9648 30.5344 30.2133 30.8188C30.2891 30.9056 30.2803 31.0374 30.1935 31.1132C30.1067 31.1891 29.9749 31.1802 29.8991 31.0934C29.6738 30.8356 29.2876 30.4603 28.7128 30.1628L28.7126 30.1627C28.2541 29.9249 27.8305 29.8179 27.5271 29.7666C27.4134 29.7475 27.3369 29.6398 27.3561 29.5262Z" fill="#19100B"/>
<path fill-rule="evenodd" clip-rule="evenodd" d="M39.9067 29.5326C39.9142 29.6476 39.8271 29.7469 39.7122 29.7545C39.4051 29.7746 38.9728 29.838 38.4925 30.028L38.4923 30.0281C37.8902 30.2655 37.4679 30.5997 37.2176 30.8333C37.1333 30.9119 37.0013 30.9073 36.9227 30.8231C36.844 30.7388 36.8486 30.6068 36.9329 30.5282C37.209 30.2705 37.6748 29.9019 38.3392 29.6399C38.8694 29.4301 39.3464 29.3602 39.6849 29.3381C39.7999 29.3305 39.8992 29.4176 39.9067 29.5326Z" fill="#19100B"/>
<path fill-rule="evenodd" clip-rule="evenodd" d="M38.8555 38.5501C38.9376 38.631 38.9385 38.7631 38.8576 38.8452C38.7059 38.999 37.5814 40.0899 35.922 39.9164C34.9107 39.8108 34.2169 39.2871 33.8898 38.9884C33.5498 39.2933 32.8448 39.8177 31.8116 39.9686C30.4303 40.1698 29.4035 39.5659 29.1327 39.3959C29.0351 39.3346 29.0057 39.2058 29.0669 39.1083C29.1282 39.0107 29.257 38.9812 29.3546 39.0425C29.598 39.1953 30.5186 39.7353 31.7514 39.5557C32.8417 39.3964 33.5254 38.7701 33.744 38.552C33.7834 38.5127 33.837 38.4907 33.8927 38.4911C33.9484 38.4914 34.0016 38.514 34.0405 38.5539C34.2379 38.7557 34.906 39.3907 35.9654 39.5014C37.4232 39.6538 38.4257 38.6888 38.5605 38.5522C38.6414 38.4701 38.7735 38.4692 38.8555 38.5501Z" fill="#19100B"/>
<path d="M33.6735 36.0207C33.8047 36.0274 33.9165 35.9265 33.9232 35.7953C33.9299 35.6641 33.8289 35.5523 33.6978 35.5456C33.5666 35.539 33.4548 35.6399 33.4481 35.7711C33.4414 35.9023 33.5424 36.0141 33.6735 36.0207Z" fill="#19100B"/>
</g>
<defs>
<clipPath id="clip0_219_2">
<rect width="53.908" height="42.616" fill="white" transform="translate(8.20349 11.0276) rotate(2.91677)"/>
</clipPath>
</defs>
</svg>
