<?xml version="1.0" encoding="utf-8"?>
<!-- Generator: Adobe Illustrator 27.7.0, SVG Export Plug-In . SVG Version: 6.00 Build 0)  -->
<svg version="1.1" id="Layer_1" xmlns="http://www.w3.org/2000/svg" xmlns:xlink="http://www.w3.org/1999/xlink" x="0px" y="0px"
	 viewBox="0 0 150 150" style="enable-background:new 0 0 150 150;" xml:space="preserve">
<g id="_그룹_5">
	<path id="_패스_8" d="M82.25,90h-14.5C63.47,90,60,86.53,60,82.25v-14.5c0.01-4.28,3.47-7.74,7.75-7.75h14.5
		c4.28,0.01,7.74,3.47,7.75,7.75v14.5C90,86.53,86.53,90,82.25,90 M67.75,62.43c-2.94,0-5.32,2.38-5.32,5.32v14.5
		c0,2.94,2.38,5.32,5.32,5.32h14.5c2.94,0,5.32-2.39,5.32-5.32v-14.5c0-2.94-2.39-5.32-5.32-5.32H67.75z"/>
	<path id="_패스_9" d="M75,82.86c-4.34,0-7.86-3.52-7.86-7.86s3.52-7.86,7.86-7.86s7.86,3.52,7.86,7.86v0
		C82.85,79.34,79.34,82.85,75,82.86 M75,69.57c-3,0-5.43,2.43-5.43,5.43S72,80.43,75,80.43S80.43,78,80.43,75
		C80.43,72,78,69.57,75,69.57"/>
	<path id="_패스_10" d="M85.17,66.61c0,1.01-0.82,1.83-1.83,1.83s-1.83-0.82-1.83-1.83s0.82-1.83,1.83-1.83l0,0
		C84.35,64.78,85.17,65.6,85.17,66.61"/>
</g>
</svg>
