<?xml version="1.0" encoding="UTF-8"?><svg id="Layer_1" xmlns="http://www.w3.org/2000/svg" viewBox="0 0 150 150"><defs><style>.cls-1{fill:#fff;}.cls-2{fill:#0fc291;}</style></defs><rect class="cls-2" width="150" height="150"/><g id="_그룹_7"><path id="_패스_11" class="cls-1" d="m76.483,56.203h-.258c-8.213,0-14.87,6.658-14.87,14.871v.377c0,5.46,2.99,10.481,7.791,13.082-.192.766-.534,1.486-1.007,2.119-.63.844-1.422,1.832-1.789,2.218s-.033.568,1.06.287c1.774-.527,3.485-1.249,5.1-2.152.769-.444,1.217-.7,1.532-.864.723.116,1.453.177,2.185.182h.258c8.212-.002,14.869-6.66,14.87-14.872v-.377c0-8.213-6.658-14.871-14.871-14.871,0,0,0,0,0,0m-4.766,17.782h-3.186c-.464.014-.917-.138-1.278-.43-.635-.589-.673-1.581-.084-2.216.027-.029.055-.057.084-.084.36-.291.812-.442,1.274-.425h3.186l.004,3.155Zm11.775-1.752c-1.051,1.213-2.606,1.867-4.208,1.77h-2.162v-3.162h1.188c.745.052,1.478-.205,2.028-.711.462-.493.703-1.153.668-1.828-.011-.639-.283-1.245-.751-1.679-.481-.419-1.104-.641-1.742-.62h-2.31v11.789c.017.53-.156,1.049-.487,1.464-.325.392-.817.607-1.326.577-.514.024-1.01-.191-1.345-.582-.341-.409-.519-.928-.5-1.46v-12.714c-.039-.61.175-1.208.592-1.655.447-.418,1.045-.635,1.656-.6h3.974c1.545-.115,3.073.387,4.248,1.396.362.345.673.738.926,1.169.266.443.473.919.614,1.416.137.485.208.985.21,1.489.062,1.425-.39,2.825-1.274,3.945"/></g></svg>