<?xml version="1.0" encoding="utf-8"?>
<!-- Generator: Adobe Illustrator 27.7.0, SVG Export Plug-In . SVG Version: 6.00 Build 0)  -->
<svg version="1.1" id="Layer_1" xmlns="http://www.w3.org/2000/svg" xmlns:xlink="http://www.w3.org/1999/xlink" x="0px" y="0px"
	 viewBox="0 0 150 150" style="enable-background:new 0 0 150 150;" xml:space="preserve">
<g id="_그룹_649">
	<path id="_패스_153" d="M75,67.36c-2.17,0-3.94,1.76-3.94,3.93c0,2.17,1.76,3.94,3.93,3.94c2.17,0,3.94-1.76,3.94-3.93
		c0,0,0-0.01,0-0.01C78.93,69.12,77.17,67.36,75,67.36 M75,73.54c-1.24,0-2.25-1.01-2.25-2.25s1.01-2.25,2.25-2.25
		s2.25,1.01,2.25,2.25C77.25,72.53,76.25,73.54,75,73.54C75,73.54,75,73.54,75,73.54"/>
	<path id="_패스_154" d="M60,56.5v37l15-8.94l15,8.94v-37H60z M65.51,71.29c1.91-3.45,5.55-5.58,9.49-5.55
		c3.94-0.03,7.58,2.1,9.49,5.55c-2.94,5.24-9.57,7.11-14.81,4.17C67.93,74.48,66.49,73.04,65.51,71.29"/>
</g>
</svg>
