<?xml version="1.0" encoding="utf-8"?>
<!-- Generator: Adobe Illustrator 27.7.0, SVG Export Plug-In . SVG Version: 6.00 Build 0)  -->
<svg version="1.1" id="Layer_1" xmlns="http://www.w3.org/2000/svg" xmlns:xlink="http://www.w3.org/1999/xlink" x="0px" y="0px"
	 viewBox="0 0 150 150" style="enable-background:new 0 0 150 150;" xml:space="preserve">
<path d="M75,61.72c-9.06,0-16.4,7.34-16.4,16.4c0,3.09,0.85,5.97,2.33,8.43c0.37,0.61,0.77,1.19,1.22,1.74
	c2.31-4.77,7.19-8.05,12.85-8.05c5.66,0,10.54,3.28,12.85,8.05c0.45-0.56,0.85-1.14,1.22-1.75c1.48-2.46,2.33-5.34,2.33-8.42
	C91.4,69.05,84.05,61.72,75,61.72z M75,77.62c-3.08,0-5.58-2.5-5.58-5.58c0-3.08,2.5-5.58,5.58-5.58c3.08,0,5.58,2.5,5.58,5.58
	C80.58,75.12,78.08,77.62,75,77.62z"/>
</svg>
