<?xml version="1.0" encoding="utf-8"?>
<!-- Generator: Adobe Illustrator 27.7.0, SVG Export Plug-In . SVG Version: 6.00 Build 0)  -->
<svg version="1.1" id="Layer_1" xmlns="http://www.w3.org/2000/svg" xmlns:xlink="http://www.w3.org/1999/xlink" x="0px" y="0px"
	 viewBox="0 0 150 150" style="enable-background:new 0 0 150 150;" xml:space="preserve">
<g id="_그룹_7">
	<path id="_패스_11" d="M76.48,56.2h-0.26c-8.21,0-14.87,6.66-14.87,14.87v0.38c0,5.46,2.99,10.48,7.79,13.08
		c-0.19,0.77-0.53,1.49-1.01,2.12c-0.63,0.84-1.42,1.83-1.79,2.22s-0.03,0.57,1.06,0.29c1.77-0.53,3.49-1.25,5.1-2.15
		c0.77-0.44,1.22-0.7,1.53-0.86c0.72,0.12,1.45,0.18,2.18,0.18h0.26c8.21,0,14.87-6.66,14.87-14.87v-0.38
		C91.35,62.86,84.7,56.2,76.48,56.2L76.48,56.2 M71.72,73.99h-3.19c-0.46,0.01-0.92-0.14-1.28-0.43c-0.64-0.59-0.67-1.58-0.08-2.22
		c0.03-0.03,0.06-0.06,0.08-0.08c0.36-0.29,0.81-0.44,1.27-0.43h3.19C71.71,70.83,71.72,73.99,71.72,73.99z M83.49,72.23
		c-1.05,1.21-2.61,1.87-4.21,1.77h-2.16v-3.16h1.19c0.75,0.05,1.48-0.21,2.03-0.71c0.46-0.49,0.7-1.15,0.67-1.83
		c-0.01-0.64-0.28-1.25-0.75-1.68c-0.48-0.42-1.1-0.64-1.74-0.62H76.2v11.79c0.02,0.53-0.16,1.05-0.49,1.46
		c-0.32,0.39-0.82,0.61-1.33,0.58c-0.51,0.02-1.01-0.19-1.35-0.58c-0.34-0.41-0.52-0.93-0.5-1.46V65.08
		c-0.04-0.61,0.18-1.21,0.59-1.65c0.45-0.42,1.04-0.63,1.66-0.6h3.97c1.54-0.12,3.07,0.39,4.25,1.4c0.36,0.35,0.67,0.74,0.93,1.17
		c0.27,0.44,0.47,0.92,0.61,1.42c0.14,0.49,0.21,0.99,0.21,1.49C84.83,69.72,84.38,71.12,83.49,72.23"/>
</g>
</svg>
