<?xml version="1.0" encoding="utf-8"?>
<!-- Generator: Adobe Illustrator 27.7.0, SVG Export Plug-In . SVG Version: 6.00 Build 0)  -->
<svg version="1.1" id="Layer_1" xmlns="http://www.w3.org/2000/svg" xmlns:xlink="http://www.w3.org/1999/xlink" x="0px" y="0px"
	 viewBox="0 0 150 150" style="enable-background:new 0 0 150 150;" xml:space="preserve">
<g id="_그룹_13">
	<path d="M87.01,85.6l-5.2-5.2c1.56-1.87,2.5-4.28,2.5-6.9c0-2.89-1.13-5.6-3.17-7.64c-1.02-1.02-2.21-1.81-3.51-2.35
		c-1.29-0.54-2.69-0.82-4.13-0.82c-5.96,0-10.81,4.85-10.81,10.81c-0.01,5.96,4.84,10.81,10.81,10.81c2.62,0,5.03-0.94,6.9-2.49
		l5.19,5.19c0.2,0.2,0.45,0.3,0.71,0.3s0.51-0.1,0.71-0.3C87.4,86.62,87.4,85.99,87.01,85.6z M64.69,73.5
		c0-4.86,3.95-8.81,8.81-8.81c2.35,0,4.56,0.92,6.23,2.58c1.66,1.67,2.58,3.88,2.58,6.23c0,4.86-3.96,8.81-8.81,8.81
		S64.68,78.36,64.69,73.5z"/>
</g>
</svg>
