<?xml version="1.0" encoding="UTF-8"?><svg id="Layer_1" xmlns="http://www.w3.org/2000/svg" viewBox="0 0 150 150"><defs><style>.cls-1{fill:#fff;}.cls-2{fill:#0fc291;}</style></defs><rect class="cls-2" width="150" height="150"/><g id="_그룹_18"><path class="cls-1" d="m75,77.586c-1.426,0-2.586-1.16-2.586-2.586s1.16-2.586,2.586-2.586,2.586,1.16,2.586,2.586-1.16,2.586-2.586,2.586Zm0-3.672c-.599,0-1.086.487-1.086,1.086s.487,1.086,1.086,1.086,1.086-.487,1.086-1.086-.487-1.086-1.086-1.086Z"/><path class="cls-1" d="m74.984,79.97c-1.493,0-3.005-.37-4.397-1.151-1.446-.812-2.64-2.006-3.452-3.452-.127-.228-.127-.506,0-.734,2.434-4.336,7.941-5.884,12.278-3.452,1.446.812,2.64,2.005,3.452,3.452.128.228.128.506,0,.734-1.652,2.944-4.722,4.604-7.88,4.604Zm-6.321-4.971c.665,1.041,1.577,1.904,2.658,2.511,3.49,1.96,7.89.823,10.015-2.511-.665-1.041-1.577-1.904-2.658-2.51-3.49-1.958-7.89-.824-10.016,2.51Z"/></g></svg>