<?xml version="1.0" encoding="UTF-8"?><svg id="Layer_1" xmlns="http://www.w3.org/2000/svg" viewBox="0 0 150 150"><defs><style>.cls-1{fill:#fff;}.cls-2{fill:#0fc291;}</style></defs><rect class="cls-2" width="150" height="150"/><g id="_그룹_13"><path class="cls-1" d="m87.014,85.6l-5.2-5.2c1.56-1.87,2.5-4.28,2.5-6.9,0-2.89-1.13-5.6-3.17-7.64-1.02-1.02-2.21-1.81-3.51-2.35-1.29-.54-2.69-.82-4.13-.82-5.96,0-10.81,4.85-10.81,10.81-.01,5.96,4.84,10.81,10.81,10.81,2.62,0,5.03-.94,6.9-2.49l5.19,5.19c.2.2.45.3.71.3s.51-.1.71-.3c.39-.39.39-1.02,0-1.41Zm-22.32-12.1c0-4.86,3.95-8.81,8.81-8.81,2.35,0,4.56.92,6.23,2.58,1.66,1.67,2.58,3.88,2.58,6.23,0,4.86-3.96,8.81-8.81,8.81s-8.82-3.95-8.81-8.81Z"/></g></svg>