<?xml version="1.0" encoding="utf-8"?>
<!-- Generator: Adobe Illustrator 27.7.0, SVG Export Plug-In . SVG Version: 6.00 Build 0)  -->
<svg version="1.1" id="Layer_1" xmlns="http://www.w3.org/2000/svg" xmlns:xlink="http://www.w3.org/1999/xlink" x="0px" y="0px"
	 viewBox="0 0 150 150" style="enable-background:new 0 0 150 150;" xml:space="preserve">
<g id="_그룹_18">
	<path d="M75,77.59c-1.43,0-2.59-1.16-2.59-2.59s1.16-2.59,2.59-2.59s2.59,1.16,2.59,2.59S76.43,77.59,75,77.59z M75,73.91
		c-0.6,0-1.09,0.49-1.09,1.09s0.49,1.09,1.09,1.09s1.09-0.49,1.09-1.09S75.6,73.91,75,73.91z"/>
	<path d="M74.98,79.97c-1.49,0-3-0.37-4.4-1.15c-1.45-0.81-2.64-2.01-3.45-3.45c-0.13-0.23-0.13-0.51,0-0.73
		c2.43-4.34,7.94-5.88,12.28-3.45c1.45,0.81,2.64,2,3.45,3.45c0.13,0.23,0.13,0.51,0,0.73C81.21,78.31,78.14,79.97,74.98,79.97
		L74.98,79.97z M68.66,75c0.67,1.04,1.58,1.9,2.66,2.51c3.49,1.96,7.89,0.82,10.01-2.51c-0.67-1.04-1.58-1.9-2.66-2.51
		C75.19,70.53,70.79,71.67,68.66,75L68.66,75z"/>
</g>
</svg>
