<?xml version="1.0" encoding="UTF-8"?><svg id="Layer_1" xmlns="http://www.w3.org/2000/svg" viewBox="0 0 150 150"><defs><style>.cls-1{fill:#fff;}.cls-2{fill:#0fc291;}</style></defs><rect class="cls-2" width="150" height="150"/><g id="_그룹_651"><path class="cls-1" d="m71.542,81.434c-.399,0-.786-.216-.984-.593-.113-.216-.153-.466-.112-.704l.562-3.278-2.381-2.321c-.438-.426-.448-1.13-.021-1.569.169-.174.395-.29.637-.325l3.292-.478,1.471-2.981c.132-.267.359-.465.64-.56.281-.096.582-.074.848.057.216.106.396.285.503.503l1.471,2.982,3.291.478c.606.089,1.028.653.939,1.259-.034.239-.15.466-.326.637l-2.379,2.319.562,3.277c.103.604-.304,1.179-.907,1.282-.243.039-.492,0-.704-.112l-2.941-1.55-2.944,1.55c-.165.087-.341.128-.515.128Zm-1.518-7.489l2.487,2.426-.587,3.423,2.56-1.347c.323-.17.708-.172,1.031,0l2.559,1.348-.587-3.423,2.487-2.425-3.438-.5-1.537-3.114-1.537,3.113-3.439.5Z"/><path class="cls-1" d="m71.542,81.434c-.399,0-.786-.216-.984-.593-.113-.216-.153-.466-.112-.704l.562-3.278-2.381-2.321c-.438-.426-.448-1.13-.021-1.569.169-.174.395-.29.637-.325l3.292-.478,1.471-2.981c.132-.267.359-.465.64-.56.281-.096.582-.074.848.057.216.106.396.285.503.503l1.471,2.982,3.291.478c.606.089,1.028.653.939,1.259-.034.239-.15.466-.326.637l-2.379,2.319.562,3.277c.103.604-.304,1.179-.907,1.282-.243.039-.492,0-.704-.112l-2.941-1.55-2.944,1.55c-.165.087-.341.128-.515.128Zm-1.518-7.489l2.487,2.426-.587,3.423,2.56-1.347c.323-.17.708-.172,1.031,0l2.559,1.348-.587-3.423,2.487-2.425-3.438-.5-1.537-3.114-1.537,3.113-3.439.5Z"/></g></svg>