<?xml version="1.0" encoding="UTF-8"?><svg id="Layer_1" xmlns="http://www.w3.org/2000/svg" viewBox="0 0 150 150"><defs><style>.cls-1{fill:#fff;}.cls-2{fill:#0fc291;}</style></defs><rect class="cls-2" width="150" height="150"/><g id="_그룹_5"><path id="_패스_8" class="cls-1" d="m82.25,90h-14.5c-4.279-.005-7.746-3.472-7.75-7.751v-14.5c.006-4.278,3.472-7.744,7.75-7.749h14.5c4.278.005,7.744,3.471,7.75,7.749v14.5c-.004,4.279-3.471,7.746-7.75,7.751m-14.5-27.572c-2.937.003-5.318,2.384-5.322,5.321v14.5c.003,2.938,2.384,5.319,5.322,5.323h14.5c2.938-.003,5.32-2.385,5.323-5.323v-14.5c-.004-2.938-2.385-5.318-5.323-5.321h-14.5Z"/><path id="_패스_9" class="cls-1" d="m75,82.859c-4.342,0-7.861-3.518-7.862-7.86s3.518-7.861,7.86-7.862,7.861,3.518,7.862,7.86v.002c-.006,4.339-3.521,7.854-7.86,7.86m0-13.294c-3.001,0-5.433,2.432-5.433,5.433s2.432,5.433,5.433,5.433,5.432-2.432,5.433-5.432c-.003-2.999-2.434-5.43-5.433-5.434"/><path id="_패스_10" class="cls-1" d="m85.173,66.605c0,1.011-.819,1.83-1.83,1.83s-1.83-.819-1.83-1.83.819-1.83,1.83-1.83h0c1.01,0,1.829.82,1.83,1.83"/></g></svg>