<?xml version="1.0" encoding="utf-8"?>
<!-- Generator: Adobe Illustrator 27.7.0, SVG Export Plug-In . SVG Version: 6.00 Build 0)  -->
<svg version="1.1" id="Layer_1" xmlns="http://www.w3.org/2000/svg" xmlns:xlink="http://www.w3.org/1999/xlink" x="0px" y="0px"
	 viewBox="0 0 150 150" style="enable-background:new 0 0 150 150;" xml:space="preserve">
<g id="_그룹_651">
	<path d="M71.54,81.43c-0.4,0-0.79-0.22-0.98-0.59c-0.11-0.22-0.15-0.47-0.11-0.7l0.56-3.28l-2.38-2.32
		c-0.44-0.43-0.45-1.13-0.02-1.57c0.17-0.17,0.39-0.29,0.64-0.32l3.29-0.48l1.47-2.98c0.13-0.27,0.36-0.46,0.64-0.56
		c0.28-0.1,0.58-0.07,0.85,0.06c0.22,0.11,0.4,0.29,0.5,0.5l1.47,2.98l3.29,0.48c0.61,0.09,1.03,0.65,0.94,1.26
		c-0.03,0.24-0.15,0.47-0.33,0.64l-2.38,2.32l0.56,3.28c0.1,0.6-0.3,1.18-0.91,1.28c-0.24,0.04-0.49,0-0.7-0.11L75,79.76l-2.94,1.55
		C71.89,81.39,71.72,81.44,71.54,81.43L71.54,81.43z M70.02,73.95l2.49,2.43l-0.59,3.42l2.56-1.35c0.32-0.17,0.71-0.17,1.03,0
		l2.56,1.35l-0.59-3.42l2.49-2.43l-3.44-0.5L75,70.33l-1.54,3.11L70.02,73.95L70.02,73.95z"/>
	<path d="M71.54,81.43c-0.4,0-0.79-0.22-0.98-0.59c-0.11-0.22-0.15-0.47-0.11-0.7l0.56-3.28l-2.38-2.32
		c-0.44-0.43-0.45-1.13-0.02-1.57c0.17-0.17,0.39-0.29,0.64-0.32l3.29-0.48l1.47-2.98c0.13-0.27,0.36-0.46,0.64-0.56
		c0.28-0.1,0.58-0.07,0.85,0.06c0.22,0.11,0.4,0.29,0.5,0.5l1.47,2.98l3.29,0.48c0.61,0.09,1.03,0.65,0.94,1.26
		c-0.03,0.24-0.15,0.47-0.33,0.64l-2.38,2.32l0.56,3.28c0.1,0.6-0.3,1.18-0.91,1.28c-0.24,0.04-0.49,0-0.7-0.11L75,79.76l-2.94,1.55
		C71.89,81.39,71.72,81.44,71.54,81.43L71.54,81.43z M70.02,73.95l2.49,2.43l-0.59,3.42l2.56-1.35c0.32-0.17,0.71-0.17,1.03,0
		l2.56,1.35l-0.59-3.42l2.49-2.43l-3.44-0.5L75,70.33l-1.54,3.11L70.02,73.95L70.02,73.95z"/>
</g>
</svg>
